<svg width="175" height="175" viewBox="0 0 175 175" fill="none" xmlns="http://www.w3.org/2000/svg">
<path d="M174.183 87.0894C174.21 103.944 169.321 120.441 160.116 134.561C159.05 136.204 157.927 137.806 156.747 139.368C148.642 150.186 138.125 158.964 126.033 165.007C113.941 171.049 100.607 174.188 87.0894 174.174C38.9934 174.179 0 135.185 0 87.0894C0 38.9934 38.9934 0 87.0894 0C134.552 0 173.147 37.962 174.161 85.1797C174.174 85.8134 174.183 86.4514 174.183 87.0894Z" fill="#FFCA02"/>
<path d="M175 86.5953C175.027 103.45 170.138 119.947 160.933 134.066L157.564 138.873C148.043 151.554 135.249 161.402 120.554 167.361L19.2274 79.6864V67.2713L22.1378 63.9545V55.5073L36.5194 55.7957L60.9214 45.5962L78.2528 45.3077L78.8034 38.8708L74.1756 38.1235L73.7124 32.2808L90.0212 31.9006L89.9643 37.9618L84.2134 38.8358L86.4684 45.6967L99.2899 45.3077L127.039 58.2997L150.895 63.2247L157.555 70.8634L174.965 84.6857C174.991 85.3193 175 85.9573 175 86.5953Z" fill="#896416"/>
<g filter="url(#filter0_d)">
<path d="M48.087 114.21C48.9687 114.396 49.7903 114.798 50.4774 115.381C51.083 115.949 51.5008 116.688 51.6748 117.5V127.114C51.61 127.508 51.4753 127.887 51.2771 128.233C51.0442 128.639 50.7493 129.006 50.4031 129.321C50.0272 129.672 49.596 129.958 49.1271 130.169C48.6034 130.402 48.0457 130.55 47.4752 130.606H42.8255V134.312H44.4992V138.896H36.6071V134.312H38.2808V118.798H36.6071V114.21H48.087ZM47.0906 121.031C47.0971 120.575 47.0576 120.12 46.9727 119.672C46.894 119.288 46.5094 118.996 45.819 118.798H42.8299V127.385H45.819C46.5094 127.181 46.894 126.89 46.9727 126.511C47.0576 126.063 47.0972 125.608 47.0906 125.152V121.031Z" fill="#4F4F4F"/>
<path d="M48.087 114.21C48.9687 114.396 49.7903 114.798 50.4774 115.381C51.083 115.949 51.5008 116.688 51.6748 117.5V127.114C51.61 127.508 51.4753 127.887 51.2771 128.233C51.0442 128.639 50.7493 129.006 50.4031 129.321C50.0272 129.672 49.596 129.958 49.1271 130.169C48.6034 130.402 48.0457 130.55 47.4752 130.606H42.8255V134.312H44.4992V138.896H36.6071V134.312H38.2808V118.798H36.6071V114.21H48.087ZM47.0906 121.031C47.0971 120.575 47.0576 120.12 46.9727 119.672C46.894 119.288 46.5094 118.996 45.819 118.798H42.8299V127.385H45.819C46.5094 127.181 46.894 126.89 46.9727 126.511C47.0576 126.063 47.0972 125.608 47.0906 125.152V121.031Z" fill="url(#paint0_linear)"/>
</g>
<path d="M62.709 138.883V134.312H64.1031C64.033 133.837 63.9189 133.371 63.7622 132.918C63.5874 132.392 63.3817 131.877 63.146 131.375C62.9214 130.893 62.6614 130.429 62.3682 129.985C62.1475 129.632 61.8716 129.316 61.551 129.05H59.72V134.294H61.031V138.878H53.5059V134.312H55.1796V118.798H53.5059V114.21H65.0601C66.0361 114.348 66.9488 114.774 67.6821 115.433C68.2393 116.023 68.6312 116.75 68.8183 117.54V125.449C68.755 125.731 68.6747 126.008 68.5779 126.28C68.4614 126.606 68.3012 126.914 68.1016 127.197C67.8709 127.525 67.5959 127.819 67.2844 128.071C66.9114 128.365 66.4857 128.584 66.0302 128.718C66.2878 129.001 66.5081 129.315 66.6857 129.653C66.9599 130.137 67.2064 130.636 67.4243 131.148C67.6632 131.701 67.8758 132.262 68.0623 132.83C68.2288 133.316 68.3487 133.816 68.4206 134.325H69.9763V138.909L62.709 138.883ZM62.9494 126.21C63.6399 126.006 64.0244 125.714 64.1031 125.336C64.1886 124.894 64.2281 124.444 64.2211 123.994V121.027C64.2275 120.571 64.188 120.116 64.1031 119.668C64.0215 119.283 63.6369 118.992 62.9494 118.794H59.7243V126.223L62.9494 126.21Z" fill="#4F4F4F"/>
<path d="M62.709 138.883V134.312H64.1031C64.033 133.837 63.9189 133.371 63.7622 132.918C63.5874 132.392 63.3817 131.877 63.146 131.375C62.9214 130.893 62.6614 130.429 62.3682 129.985C62.1475 129.632 61.8716 129.316 61.551 129.05H59.72V134.294H61.031V138.878H53.5059V134.312H55.1796V118.798H53.5059V114.21H65.0601C66.0361 114.348 66.9488 114.774 67.6821 115.433C68.2393 116.023 68.6312 116.75 68.8183 117.54V125.449C68.755 125.731 68.6747 126.008 68.5779 126.28C68.4614 126.606 68.3012 126.914 68.1016 127.197C67.8709 127.525 67.5959 127.819 67.2844 128.071C66.9114 128.365 66.4857 128.584 66.0302 128.718C66.2878 129.001 66.5081 129.315 66.6857 129.653C66.9599 130.137 67.2064 130.636 67.4243 131.148C67.6632 131.701 67.8758 132.262 68.0623 132.83C68.2288 133.316 68.3487 133.816 68.4206 134.325H69.9763V138.909L62.709 138.883ZM62.9494 126.21C63.6399 126.006 64.0244 125.714 64.1031 125.336C64.1886 124.894 64.2281 124.444 64.2211 123.994V121.027C64.2275 120.571 64.188 120.116 64.1031 119.668C64.0215 119.283 63.6369 118.992 62.9494 118.794H59.7243V126.223L62.9494 126.21Z" fill="url(#paint1_linear)"/>
<path d="M82.273 121.809V118.79H78.4886V125.275H82.155V124.02H84.9431V129.264H82.155V128.019H78.4886V134.312H80.1623V138.896H72.2701V134.312H73.9438V118.798H72.2701V114.21H86.6911V121.814L82.273 121.809Z" fill="#4F4F4F"/>
<path d="M82.273 121.809V118.79H78.4886V125.275H82.155V124.02H84.9431V129.264H82.155V128.019H78.4886V134.312H80.1623V138.896H72.2701V134.312H73.9438V118.798H72.2701V114.21H86.6911V121.814L82.273 121.809Z" fill="url(#paint2_linear)"/>
<path d="M95.7335 139.756V136.326H96.7779C96.7258 135.972 96.641 135.624 96.5245 135.286C96.3929 134.892 96.2383 134.507 96.0613 134.132C95.8935 133.772 95.6992 133.424 95.48 133.092C95.3148 132.828 95.1083 132.592 94.8683 132.393H93.4961V136.326H94.4793V139.756H88.842V136.326H90.0962V124.719H88.842V121.289H97.4902C98.2173 121.394 98.897 121.711 99.4436 122.202C99.8592 122.643 100.152 123.186 100.291 123.775V129.692C100.244 129.902 100.184 130.11 100.112 130.313C100.024 130.557 99.9038 130.787 99.7539 130.999C99.5806 131.242 99.3748 131.459 99.1421 131.646C98.8624 131.864 98.5435 132.027 98.2025 132.126C98.3964 132.337 98.5624 132.572 98.6964 132.826C98.9008 133.188 99.0846 133.561 99.247 133.944C99.4247 134.358 99.5835 134.777 99.7233 135.203C99.8474 135.566 99.9366 135.941 99.9899 136.321H101.152V139.752L95.7335 139.756ZM95.9127 130.282C96.4283 130.131 96.7197 129.915 96.7867 129.635C96.8505 129.304 96.8798 128.967 96.8741 128.63V126.397C96.879 126.057 96.8497 125.718 96.7867 125.383C96.7255 125.092 96.4342 124.872 95.9127 124.724H93.4961V130.287L95.9127 130.282Z" fill="#4F4F4F"/>
<path d="M95.7335 139.756V136.326H96.7779C96.7258 135.972 96.641 135.624 96.5245 135.286C96.3929 134.892 96.2383 134.507 96.0613 134.132C95.8935 133.772 95.6992 133.424 95.48 133.092C95.3148 132.828 95.1083 132.592 94.8683 132.393H93.4961V136.326H94.4793V139.756H88.842V136.326H90.0962V124.719H88.842V121.289H97.4902C98.2173 121.394 98.897 121.711 99.4436 122.202C99.8592 122.643 100.152 123.186 100.291 123.775V129.692C100.244 129.902 100.184 130.11 100.112 130.313C100.024 130.557 99.9038 130.787 99.7539 130.999C99.5806 131.242 99.3748 131.459 99.1421 131.646C98.8624 131.864 98.5435 132.027 98.2025 132.126C98.3964 132.337 98.5624 132.572 98.6964 132.826C98.9008 133.188 99.0846 133.561 99.247 133.944C99.4247 134.358 99.5835 134.777 99.7233 135.203C99.8474 135.566 99.9366 135.941 99.9899 136.321H101.152V139.752L95.7335 139.756ZM95.9127 130.282C96.4283 130.131 96.7197 129.915 96.7867 129.635C96.8505 129.304 96.8798 128.967 96.8741 128.63V126.397C96.879 126.057 96.8497 125.718 96.7867 125.383C96.7255 125.092 96.4342 124.872 95.9127 124.724H93.4961V130.287L95.9127 130.282Z" fill="url(#paint3_linear)"/>
<path d="M106.011 139.756C105.348 139.616 104.728 139.316 104.207 138.882C103.746 138.461 103.428 137.907 103.298 137.296V123.749C103.428 123.139 103.746 122.584 104.207 122.163C104.728 121.729 105.348 121.429 106.011 121.289H111.05C111.714 121.429 112.333 121.729 112.855 122.163C113.316 122.584 113.633 123.139 113.764 123.749V137.296C113.633 137.907 113.316 138.461 112.855 138.882C112.334 139.316 111.714 139.616 111.05 139.756H106.011ZM109.621 136.453C109.797 136.387 109.963 136.297 110.115 136.186C110.201 136.099 110.266 135.992 110.305 135.876C110.344 135.759 110.355 135.635 110.338 135.513V125.532C110.355 125.41 110.344 125.286 110.305 125.169C110.266 125.053 110.201 124.947 110.115 124.859C109.963 124.748 109.797 124.658 109.621 124.592H107.436C107.26 124.658 107.094 124.748 106.942 124.859C106.856 124.947 106.791 125.053 106.753 125.17C106.714 125.286 106.703 125.41 106.719 125.532V135.513C106.703 135.635 106.714 135.759 106.753 135.875C106.791 135.992 106.856 136.098 106.942 136.186C107.094 136.297 107.26 136.387 107.436 136.453H109.621Z" fill="#4F4F4F"/>
<path d="M106.011 139.756C105.348 139.616 104.728 139.316 104.207 138.882C103.746 138.461 103.428 137.907 103.298 137.296V123.749C103.428 123.139 103.746 122.584 104.207 122.163C104.728 121.729 105.348 121.429 106.011 121.289H111.05C111.714 121.429 112.333 121.729 112.855 122.163C113.316 122.584 113.633 123.139 113.764 123.749V137.296C113.633 137.907 113.316 138.461 112.855 138.882C112.334 139.316 111.714 139.616 111.05 139.756H106.011ZM109.621 136.453C109.797 136.387 109.963 136.297 110.115 136.186C110.201 136.099 110.266 135.992 110.305 135.876C110.344 135.759 110.355 135.635 110.338 135.513V125.532C110.355 125.41 110.344 125.286 110.305 125.169C110.266 125.053 110.201 124.947 110.115 124.859C109.963 124.748 109.797 124.658 109.621 124.592H107.436C107.26 124.658 107.094 124.748 106.942 124.859C106.856 124.947 106.791 125.053 106.753 125.17C106.714 125.286 106.703 125.41 106.719 125.532V135.513C106.703 135.635 106.714 135.759 106.753 135.875C106.791 135.992 106.856 136.098 106.942 136.186C107.094 136.297 107.26 136.387 107.436 136.453H109.621Z" fill="url(#paint4_linear)"/>
<path d="M120.232 124.029H118.65V126.542H115.534V120.861H128.325V126.542H125.223V124.029H123.662V135.889H125.122V139.32H118.772V135.889H120.232V124.029Z" fill="#4F4F4F"/>
<path d="M120.232 124.029H118.65V126.542H115.534V120.861H128.325V126.542H125.223V124.029H123.662V135.889H125.122V139.32H118.772V135.889H120.232V124.029Z" fill="url(#paint5_linear)"/>
<path d="M134.709 135.889H135.784V139.32H130.177V135.889H131.339L133.218 124.283H131.964V120.852H141.316V124.283H140.062L141.971 135.889H143.134V139.32H137.545V135.889H138.589L138.261 133.324H135.041L134.709 135.889ZM137.213 125.502C137.172 125.333 137.112 125.122 137.033 124.868C137.058 124.805 137.067 124.737 137.059 124.67C137.051 124.603 137.028 124.539 136.989 124.483C136.951 124.427 136.9 124.382 136.84 124.35C136.781 124.319 136.714 124.302 136.647 124.302C136.579 124.302 136.513 124.319 136.453 124.35C136.393 124.382 136.342 124.427 136.304 124.483C136.266 124.539 136.242 124.603 136.234 124.67C136.227 124.737 136.235 124.805 136.26 124.868C136.181 125.122 136.122 125.333 136.081 125.502L135.277 131.139H138.021L137.213 125.502Z" fill="#4F4F4F"/>
<path d="M134.709 135.889H135.784V139.32H130.177V135.889H131.339L133.218 124.283H131.964V120.852H141.316V124.283H140.062L141.971 135.889H143.134V139.32H137.545V135.889H138.589L138.261 133.324H135.041L134.709 135.889ZM137.213 125.502C137.172 125.333 137.112 125.122 137.033 124.868C137.058 124.805 137.067 124.737 137.059 124.67C137.051 124.603 137.028 124.539 136.989 124.483C136.951 124.427 136.9 124.382 136.84 124.35C136.781 124.319 136.714 124.302 136.647 124.302C136.579 124.302 136.513 124.319 136.453 124.35C136.393 124.382 136.342 124.427 136.304 124.483C136.266 124.539 136.242 124.603 136.234 124.67C136.227 124.737 136.235 124.805 136.26 124.868C136.181 125.122 136.122 125.333 136.081 125.502L135.277 131.139H138.021L137.213 125.502Z" fill="url(#paint6_linear)"/>
<path d="M46.3393 114.21C47.221 114.396 48.0426 114.798 48.7297 115.381C49.3353 115.949 49.7531 116.688 49.9271 117.5V127.114C49.8623 127.508 49.7277 127.887 49.5294 128.233C49.2965 128.639 49.0016 129.006 48.6554 129.321C48.2795 129.672 47.8484 129.958 47.3794 130.169C46.8557 130.402 46.298 130.55 45.7275 130.606H41.0779V134.312H42.7516V138.896H34.8594V134.312H36.5331V118.798H34.8594V114.21H46.3393ZM45.343 121.031C45.3494 120.575 45.3099 120.12 45.225 119.672C45.1463 119.288 44.7618 118.996 44.0713 118.798H41.0779V127.385H44.0669C44.7574 127.181 45.1419 126.89 45.2206 126.511C45.3056 126.063 45.3451 125.608 45.3386 125.152L45.343 121.031Z" fill="#000E4B"/>
<path d="M61.3983 138.883V134.312H62.7923C62.7222 133.837 62.6081 133.371 62.4514 132.918C62.2766 132.392 62.0709 131.877 61.8353 131.375C61.6107 130.893 61.3507 130.429 61.0574 129.985C60.8367 129.632 60.5608 129.316 60.2402 129.05H58.4092V134.294H59.7202V138.878H52.1951V134.312H53.8688V118.798H52.1951V114.21H63.7493C64.7253 114.348 65.638 114.774 66.3713 115.433C66.9285 116.023 67.3204 116.75 67.5075 117.54V125.449C67.4442 125.731 67.3639 126.008 67.2671 126.28C67.1506 126.606 66.9904 126.914 66.7908 127.197C66.5601 127.525 66.2851 127.819 65.9736 128.071C65.6006 128.365 65.1749 128.584 64.7194 128.718C64.977 129.001 65.1973 129.315 65.3749 129.653C65.6491 130.137 65.8956 130.636 66.1135 131.148C66.3524 131.701 66.565 132.262 66.7515 132.83C66.918 133.316 67.038 133.816 67.1098 134.325H68.6655V138.909L61.3983 138.883ZM61.6386 126.21C62.3291 126.006 62.7136 125.714 62.7923 125.336C62.8778 124.894 62.9174 124.444 62.9103 123.994V121.027C62.9167 120.571 62.8772 120.116 62.7923 119.668C62.7107 119.283 62.3261 118.992 61.6386 118.794H58.4136V126.223L61.6386 126.21Z" fill="#000E4B"/>
<path d="M80.5254 121.809V118.79H76.7409V125.275H80.4074V124.02H83.1954V129.264H80.4074V128.019H76.7409V134.312H78.4146V138.896H70.5225V134.312H72.1962V118.798H70.5225V114.21H84.9434V121.814L80.5254 121.809Z" fill="#000E4B"/>
<path d="M93.9858 138.882V135.452H95.0303C94.9782 135.098 94.8933 134.75 94.7768 134.412C94.6453 134.019 94.4906 133.633 94.3136 133.258C94.1458 132.898 93.9515 132.55 93.7324 132.218C93.5671 131.954 93.3606 131.718 93.1206 131.519H91.7484V135.452H92.7316V138.882H87.0944V135.452H88.3485V123.845H87.0944V120.415H95.7426C96.4696 120.52 97.1493 120.838 97.6959 121.328C98.1115 121.769 98.4039 122.312 98.5437 122.901V128.818C98.4965 129.029 98.4367 129.236 98.3646 129.439C98.2767 129.683 98.1562 129.914 98.0062 130.125C97.8329 130.368 97.6271 130.585 97.3944 130.772C97.1147 130.99 96.7958 131.154 96.4549 131.252C96.6487 131.463 96.8147 131.698 96.9487 131.952C97.1531 132.314 97.337 132.687 97.4993 133.07C97.677 133.484 97.8358 133.904 97.9756 134.329C98.0997 134.693 98.1889 135.067 98.2422 135.448H99.4046V138.878L93.9858 138.882ZM94.165 129.408C94.6807 129.257 94.972 129.041 95.039 128.762C95.1028 128.43 95.1321 128.094 95.1264 127.756V125.523C95.1313 125.183 95.102 124.844 95.039 124.51C94.9778 124.218 94.6865 123.998 94.165 123.85H91.7484V129.413L94.165 129.408Z" fill="white"/>
<path d="M103.826 138.882C103.162 138.743 102.542 138.443 102.021 138.008C101.56 137.587 101.242 137.033 101.112 136.422V122.875C101.242 122.265 101.56 121.71 102.021 121.289C102.543 120.855 103.162 120.555 103.826 120.415H108.864C109.528 120.555 110.148 120.855 110.669 121.289C111.13 121.71 111.448 122.265 111.578 122.875V136.422C111.448 137.033 111.13 137.587 110.669 138.008C110.148 138.443 109.528 138.743 108.864 138.882H103.826ZM107.435 135.579C107.612 135.513 107.778 135.424 107.929 135.312C108.016 135.225 108.081 135.118 108.119 135.002C108.158 134.885 108.169 134.761 108.152 134.639V124.658C108.169 124.536 108.158 124.412 108.119 124.296C108.081 124.179 108.016 124.073 107.929 123.985C107.778 123.874 107.611 123.784 107.435 123.719H105.25C105.074 123.784 104.908 123.874 104.757 123.985C104.671 124.073 104.606 124.179 104.567 124.296C104.528 124.412 104.517 124.536 104.534 124.658V134.639C104.517 134.761 104.528 134.885 104.567 135.002C104.606 135.118 104.671 135.225 104.757 135.312C104.908 135.424 105.074 135.513 105.25 135.579H107.435Z" fill="white"/>
<path d="M118.046 123.592H116.464V126.105H113.349V120.424H126.14V126.105H123.037V123.592H121.477V135.452H122.936V138.882H116.587V135.452H118.046V123.592Z" fill="white"/>
<path d="M132.088 135.452H133.163V138.882H127.556V135.452H128.718L130.597 123.845H129.343V120.415H138.695V123.845H137.441L139.35 135.452H140.513V138.882H134.924V135.452H135.968L135.64 132.887H132.42L132.088 135.452ZM134.592 125.065C134.551 124.896 134.491 124.684 134.412 124.431C134.437 124.368 134.446 124.3 134.438 124.233C134.43 124.166 134.407 124.102 134.368 124.046C134.33 123.99 134.279 123.944 134.219 123.913C134.16 123.881 134.093 123.865 134.026 123.865C133.958 123.865 133.892 123.881 133.832 123.913C133.772 123.944 133.721 123.99 133.683 124.046C133.645 124.102 133.621 124.166 133.613 124.233C133.606 124.3 133.614 124.368 133.639 124.431C133.56 124.684 133.501 124.896 133.46 125.065L132.656 130.702H135.4L134.592 125.065Z" fill="white"/>
<path d="M156.376 80.9979H132.048C131.526 80.9979 131.026 80.7907 130.657 80.4219C130.289 80.0531 130.081 79.5529 130.081 79.0314C130.081 78.5098 130.289 78.0096 130.657 77.6409C131.026 77.2721 131.526 77.0649 132.048 77.0649H154.427V70.1166L149.62 64.3308L125.655 58.9426C125.515 58.9109 125.378 58.864 125.248 58.8027L99.4261 46.6105H85.145C84.6309 46.6106 84.1372 46.4094 83.7697 46.05C83.4021 45.6906 83.1899 45.2016 83.1785 44.6877L83.0342 38.2507C83.0284 37.9888 83.075 37.7284 83.1712 37.4847C83.2674 37.2411 83.4114 37.0191 83.5945 36.8318C83.7777 36.6446 83.9965 36.4958 84.238 36.3943C84.4794 36.2927 84.7388 36.2404 85.0007 36.2405H87.8412V33.2121H75.5004L75.5659 36.2405H78.5943C79.1159 36.2405 79.6161 36.4477 79.9849 36.8165C80.3537 37.1853 80.5608 37.6854 80.5608 38.207V44.644C80.5608 45.1655 80.3537 45.6657 79.9849 46.0345C79.6161 46.4033 79.1159 46.6105 78.5943 46.6105H61.783L37.5296 56.6614C37.2913 56.7599 37.0359 56.8104 36.778 56.81H23.8909V63.2907C23.894 63.7729 23.7198 64.2395 23.4015 64.6017L20.9761 67.3635V77.0649H39.9855C40.5071 77.0649 41.0073 77.2721 41.3761 77.6409C41.7449 78.0096 41.952 78.5098 41.952 79.0314C41.952 79.5529 41.7449 80.0531 41.3761 80.4219C41.0073 80.7907 40.5071 80.9979 39.9855 80.9979H19.0096C18.4881 80.9979 17.9879 80.7907 17.6191 80.4219C17.2503 80.0531 17.0431 79.5529 17.0431 79.0314V66.6075C17.04 66.1253 17.2142 65.6587 17.5326 65.2965L19.9579 62.5347V54.8435C19.9579 54.322 20.1651 53.8218 20.5339 53.453C20.9027 53.0842 21.4029 52.877 21.9244 52.877H36.3934L60.6468 42.8261C60.8852 42.7276 61.1406 42.6771 61.3985 42.6775H76.641V40.1735H73.6563C73.1415 40.1736 72.6471 39.9718 72.2795 39.6115C71.9118 39.2512 71.7001 38.761 71.6898 38.2463L71.5456 31.2849C71.5403 31.0234 71.5873 30.7635 71.6838 30.5203C71.7803 30.2772 71.9243 30.0557 72.1074 29.8689C72.2906 29.6821 72.5091 29.5338 72.7503 29.4325C72.9915 29.3312 73.2505 29.2791 73.5121 29.2791H89.8252C90.3467 29.2791 90.8469 29.4863 91.2157 29.8551C91.5845 30.2239 91.7917 30.7241 91.7917 31.2456V38.207C91.7917 38.7285 91.5845 39.2287 91.2157 39.5975C90.8469 39.9663 90.3467 40.1735 89.8252 40.1735H87.0284L87.0852 42.6775H99.8762C100.166 42.6776 100.453 42.7418 100.715 42.8654L126.738 55.1538L151.145 60.6425C151.569 60.7381 151.951 60.9717 152.229 61.3067L157.91 68.1545C158.196 68.5092 158.351 68.9526 158.347 69.4087V79.0226C158.348 79.282 158.298 79.539 158.199 79.7789C158.1 80.0188 157.955 80.2368 157.772 80.4204C157.589 80.6039 157.371 80.7495 157.132 80.8486C156.892 80.9477 156.635 80.9984 156.376 80.9979V80.9979Z" fill="white"/>
<path d="M47.2927 88.1995C45.4777 88.1995 43.7034 87.6613 42.1942 86.6529C40.6851 85.6445 39.5089 84.2113 38.8143 82.5344C38.1197 80.8576 37.938 79.0124 38.2921 77.2322C38.6462 75.4521 39.5202 73.8169 40.8036 72.5335C42.087 71.25 43.7222 70.376 45.5024 70.0219C47.2825 69.6678 49.1277 69.8496 50.8046 70.5441C52.4814 71.2387 53.9147 72.415 54.9231 73.9241C55.9314 75.4332 56.4697 77.2075 56.4697 79.0225C56.4697 81.4564 55.5028 83.7906 53.7818 85.5116C52.0608 87.2327 49.7266 88.1995 47.2927 88.1995ZM47.2927 73.7786C46.2555 73.7786 45.2417 74.0861 44.3793 74.6623C43.5169 75.2386 42.8448 76.0576 42.4479 77.0158C42.051 77.974 41.9471 79.0284 42.1495 80.0456C42.3518 81.0628 42.8513 81.9972 43.5846 82.7306C44.318 83.464 45.2524 83.9634 46.2696 84.1658C47.2869 84.3681 48.3413 84.2643 49.2995 83.8674C50.2577 83.4705 51.0767 82.7983 51.6529 81.9359C52.2291 81.0736 52.5367 80.0597 52.5367 79.0225C52.5367 77.6318 51.9842 76.2979 51.0007 75.3145C50.0173 74.3311 48.6835 73.7786 47.2927 73.7786V73.7786Z" fill="white"/>
<path d="M123.767 88.1995C121.952 88.1995 120.178 87.6613 118.669 86.6529C117.16 85.6445 115.983 84.2113 115.289 82.5344C114.594 80.8576 114.413 79.0124 114.767 77.2322C115.121 75.4521 115.995 73.8169 117.278 72.5335C118.562 71.25 120.197 70.376 121.977 70.0219C123.757 69.6678 125.602 69.8496 127.279 70.5441C128.956 71.2387 130.389 72.415 131.398 73.9241C132.406 75.4332 132.944 77.2075 132.944 79.0225C132.944 81.4564 131.977 83.7906 130.256 85.5116C128.535 87.2327 126.201 88.1995 123.767 88.1995ZM123.767 73.7786C122.73 73.7786 121.716 74.0861 120.854 74.6623C119.992 75.2386 119.319 76.0576 118.922 77.0158C118.526 77.974 118.422 79.0284 118.624 80.0456C118.826 81.0628 119.326 81.9972 120.059 82.7306C120.793 83.464 121.727 83.9634 122.744 84.1658C123.761 84.3681 124.816 84.2643 125.774 83.8674C126.732 83.4705 127.551 82.7983 128.128 81.9359C128.704 81.0736 129.011 80.0597 129.011 79.0225C129.011 77.6318 128.459 76.2979 127.475 75.3145C126.492 74.3311 125.158 73.7786 123.767 73.7786Z" fill="white"/>
<path d="M44.889 58.239H66.5205L85.0929 81.1814L145.399 33.872L81.291 106.527L44.889 58.239Z" fill="white"/>
<defs>
<filter id="filter0_d" x="32.6071" y="114.21" width="23.0677" height="32.686" filterUnits="userSpaceOnUse" color-interpolation-filters="sRGB">
<feFlood flood-opacity="0" result="BackgroundImageFix"/>
<feColorMatrix in="SourceAlpha" type="matrix" values="0 0 0 0 0 0 0 0 0 0 0 0 0 0 0 0 0 0 127 0"/>
<feOffset dy="4"/>
<feGaussianBlur stdDeviation="2"/>
<feColorMatrix type="matrix" values="0 0 0 0 0 0 0 0 0 0 0 0 0 0 0 0 0 0 0.25 0"/>
<feBlend mode="normal" in2="BackgroundImageFix" result="effect1_dropShadow"/>
<feBlend mode="normal" in="SourceGraphic" in2="effect1_dropShadow" result="shape"/>
</filter>
<linearGradient id="paint0_linear" x1="44.1409" y1="114.21" x2="44.1409" y2="138.896" gradientUnits="userSpaceOnUse">
<stop stop-color="#9D9EA6"/>
<stop offset="1" stop-color="white" stop-opacity="0"/>
</linearGradient>
<linearGradient id="paint1_linear" x1="61.7411" y1="114.21" x2="61.7411" y2="138.909" gradientUnits="userSpaceOnUse">
<stop stop-color="#9D9EA6"/>
<stop offset="1" stop-color="white" stop-opacity="0"/>
</linearGradient>
<linearGradient id="paint2_linear" x1="79.4806" y1="114.21" x2="79.4806" y2="138.896" gradientUnits="userSpaceOnUse">
<stop stop-color="#9D9EA6"/>
<stop offset="1" stop-color="white" stop-opacity="0"/>
</linearGradient>
<linearGradient id="paint3_linear" x1="94.9972" y1="121.289" x2="94.9972" y2="139.756" gradientUnits="userSpaceOnUse">
<stop stop-color="#9D9EA6"/>
<stop offset="1" stop-color="white" stop-opacity="0"/>
</linearGradient>
<linearGradient id="paint4_linear" x1="108.531" y1="121.289" x2="108.531" y2="139.756" gradientUnits="userSpaceOnUse">
<stop stop-color="#9D9EA6"/>
<stop offset="1" stop-color="white" stop-opacity="0"/>
</linearGradient>
<linearGradient id="paint5_linear" x1="121.93" y1="120.861" x2="121.93" y2="139.32" gradientUnits="userSpaceOnUse">
<stop stop-color="#9D9EA6"/>
<stop offset="1" stop-color="white" stop-opacity="0"/>
</linearGradient>
<linearGradient id="paint6_linear" x1="136.655" y1="120.852" x2="136.655" y2="139.32" gradientUnits="userSpaceOnUse">
<stop stop-color="#9D9EA6"/>
<stop offset="1" stop-color="white" stop-opacity="0"/>
</linearGradient>
</defs>
</svg>
